<?xml version="1.0" encoding="UTF-8" standalone="no"?>
<!DOCTYPE svg PUBLIC "-//W3C//DTD SVG 1.1//EN" "http://www.w3.org/Graphics/SVG/1.1/DTD/svg11.dtd">
<svg width="100%" height="100%" viewBox="0 0 16 22" version="1.1" xmlns="http://www.w3.org/2000/svg" xmlns:xlink="http://www.w3.org/1999/xlink" xml:space="preserve" style="fill-rule:evenodd;clip-rule:evenodd;stroke-linejoin:round;stroke-miterlimit:1.41421;">
    <path d="M8,3L8,0L4,4L8,8L8,5C11.31,5 14,7.69 14,11C14,12.01 13.75,12.97 13.3,13.8L14.76,15.26C15.54,14.03 16,12.57 16,11C16,6.58 12.42,3 8,3ZM8,17C4.69,17 2,14.31 2,11C2,9.99 2.25,9.03 2.7,8.2L1.24,6.74C0.46,7.97 0,9.43 0,11C0,15.42 3.58,19 8,19L8,22L12,18L8,14L8,17Z"/>
</svg>
